Coordinates
version=1
nRows=8
nColumns=40
inDegrees=yes

Units are S.I. units (second, meters, Newtons, ...)
Angles are in degrees.

endheader
time	pelvis_tilt	pelvis_list	pelvis_rotation	pelvis_tx	pelvis_ty	pelvis_tz	hip_flexion_r	hip_adduction_r	hip_rotation_r	knee_angle_r	knee_angle_r_beta	ankle_angle_r	subtalar_angle_r	mtp_angle_r	hip_flexion_l	hip_adduction_l	hip_rotation_l	knee_angle_l	knee_angle_l_beta	ankle_angle_l	subtalar_angle_l	mtp_angle_l	lumbar_extension	lumbar_bending	lumbar_rotation	arm_flex_r	arm_add_r	arm_rot_r	elbow_flex_r	pro_sup_r	wrist_flex_r	wrist_dev_r	arm_flex_l	arm_add_l	arm_rot_l	elbow_flex_l	pro_sup_l	wrist_flex_l	wrist_dev_l
     42.68250000	     -3.79945963	     -4.57138785	      4.60984926	      1.07585907	      0.92533663	      0.42506430	      2.05287119	     -1.61603452	    -15.99492198	     22.17832949	     22.17832949	     16.11739895	      0.61709246	     -6.49914678	     24.19480418	     -6.80430244	     -3.43416173	     25.58738396	     25.58738396	      8.14058646	    -12.48787711	      2.10049485	     -7.82666411	      4.60798413	      4.00384809	     26.42423470	    -18.05547092	     -6.21204565	     79.70186353	     45.34668681	      0.00000000	      0.00000000	     -2.86883705	     -8.50189059	     -0.78359930	     28.62372688	     44.91326135	      0.00000000	      0.00000000
     42.69600000	     -3.75663665	     -4.43872960	      4.35695219	      1.07602849	      0.92616242	      0.42201731	      3.13789394	     -2.39611276	    -15.43149032	     24.94865383	     24.94865383	     15.65097086	     -0.34661364	     -7.12832533	     23.50055749	     -6.59828123	     -3.90129616	     25.31388736	     25.31388736	      8.49625465	    -12.25898084	      1.92179625	     -7.94879423	      4.42645247	      3.95560383	     25.02847043	    -17.87686171	     -5.95805411	     78.51174283	     45.37072149	      0.00000000	      0.00000000	     -1.66150059	     -8.81489588	     -0.88214285	     29.05264635	     44.95730745	      0.00000000	      0.00000000
     42.70950000	     -3.78070450	     -4.35521953	      4.08930927	      1.07597112	      0.92680742	      0.41912231	      4.51393529	     -3.12746623	    -14.72148990	     28.01520759	     28.01520759	     14.91109601	     -1.54170863	     -7.92577281	     22.92140385	     -6.43275087	     -4.32367683	     25.07607602	     25.07607602	      8.78020824	    -12.10077819	      1.72638251	     -8.01489003	      4.29688095	      3.94371933	     23.62350966	    -17.72672152	     -5.66845821	     77.04050352	     45.40254662	      0.00000000	      0.00000000	     -0.36858798	     -9.16435680	     -0.98102618	     29.49384310	     45.00166581	      0.00000000	      0.00000000
     42.72300000	     -3.82738965	     -4.24555099	      3.79147224	      1.07571009	      0.92729163	      0.41637174	      6.15168920	     -3.87620458	    -13.86254785	     31.41230433	     31.41230433	     13.89843491	     -3.01421021	     -8.86607357	     22.36979251	     -6.23802204	     -4.72147351	     24.82567052	     24.82567052	      9.01865895	    -11.97844322	      1.51107499	     -8.06678707	      4.15715621	      3.95418191	     22.23055598	    -17.55224977	     -5.33204736	     75.35141894	     45.43971613	      0.00000000	      0.00000000	      0.97922889	     -9.55339685	     -1.08666287	     29.95447774	     45.04741907	      0.00000000	      0.00000000
     42.73650000	     -3.86756189	     -4.16743846	      3.49044301	      1.07530593	      0.92768160	      0.41381819	      7.93024597	     -4.54495277	    -12.92784194	     34.94990562	     34.94990562	     12.53587783	     -4.65789323	     -9.85215970	     21.83449355	     -6.07100922	     -5.05346060	     24.59043866	     24.59043866	      9.26926590	    -11.92811163	      1.25467169	     -8.12827124	      4.00972856	      3.92128222	     20.85815775	    -17.34948747	     -4.96005101	     73.49577775	     45.48095476	      0.00000000	      0.00000000	      2.36939594	     -9.96808705	     -1.19844421	     30.44919463	     45.09432743	      0.00000000	      0.00000000
     42.75000000	     -3.86656969	     -4.06489218	      3.19376094	      1.07477011	      0.92800518	      0.41136193	      9.79143479	     -5.20342740	    -11.97448714	     38.60081511	     38.60081511	     10.90503873	     -6.34059235	    -10.73332539	     21.28839218	     -5.88353961	     -5.39688722	     24.39135242	     24.39135242	      9.49005740	    -11.91822814	      0.99401266	     -8.26726091	      3.89913230	      3.85456861	     19.49419423	    -17.09754031	     -4.56262620	     71.60615954	     45.52228755	      0.00000000	      0.00000000	      3.79285725	    -10.42890699	     -1.31788411	     30.99300279	     45.14155928	      0.00000000	      0.00000000
     42.76350000	     -3.85125511	     -4.12910539	      2.91161408	      1.07415812	      0.92831276	      0.40921453	     11.56845496	     -5.49446891	    -10.87759679	     41.79139009	     41.79139009	      7.48874051	     -9.39720635	    -15.40362470	     20.72057238	     -5.86550649	     -5.59176049	     24.08371369	     24.08371369	      9.26178391	    -12.18174562	     -0.25593800	     -8.24726434	      3.92993327	      2.97938105	     19.70980554	    -16.23044209	     -3.34344643	     66.29280434	     45.63681862	      0.00000000	      0.00000000	      4.67539748	    -11.01457089	     -1.84507406	     31.60929017	     45.29675605	      0.00000000	      0.00000000
     42.77700000	     -3.79800271	     -4.02345675	      2.63933641	      1.07342197	      0.92859540	      0.40702690	     13.52659891	     -6.07318962	     -9.96339427	     45.47155239	     45.47155239	      5.64623875	    -10.65452181	    -15.29123560	     20.16155632	     -5.67698792	     -5.86135179	     23.91605955	     23.91605955	      9.53598718	    -12.12591861	     -0.40191586	     -8.54392556	      3.84462709	      2.95111969	     17.99016651	    -16.07690753	     -2.95697202	     65.01634425	     45.65500435	      0.00000000	      0.00000000	      6.16963057	    -11.55383199	     -2.04473278	     32.38569617	     45.35515660	      0.00000000	      0.00000000
